{
    "asset": {
        "copyright": "(C)2021 DSN7",
        "generator": "maya2glTF v1.1.0 c13125a0af77",
        "version": "2.0"
    },
    "scenes": [
        {
            "nodes": [
                0
            ]
        }
    ],
    "scene": 0,
    "nodes": [
        {
            "name": "arrow_grp_flat",
            "children": [
                1
            ]
        },
        {
            "name": "arrow_grp_flat|arrow_mesh",
            "children": [
                2
            ],
            "translation": [
                0.0,
                0.0,
                -0.0007061539799906313
            ]
        },
        {
            "name": "arrow_grp_flat|arrow_mesh:PIV",
            "mesh": 0,
            "translation": [
                0.0,
                0.0,
                0.0007061539799906313
            ]
        }
    ],
    "meshes": [
        {
            "name": "arrow_grp_flat|arrow_mesh|arrow_meshShape",
            "extras": {
                "targetNames": []
            },
            "primitives": [
                {
                    "attributes": {
                        "NORMAL": 1,
                        "POSITION": 2,
                        "TANGENT": 3,
                        "TEXCOORD_0": 4
                    },
                    "indices": 0,
                    "mode": 4,
                    "material": 0
                }
            ]
        }
    ],
    "materials": [
        {
            "name": "arrow_mat",
            "pbrMetallicRoughness": {
                "baseColorFactor": [
                    1.0,
                    1.0,
                    1.0,
                    1.0
                ],
                "metallicFactor": 0.0,
                "roughnessFactor": 1.0
            }
        }
    ],
    "accessors": [
        {
            "name": "arrow_grp_flat|arrow_mesh|arrow_meshShape#0/indices",
            "bufferView": 0,
            "byteOffset": 0,
            "componentType": 5123,
            "count": 21,
            "max": [
                14
            ],
            "min": [
                0
            ],
            "type": "SCALAR"
        },
        {
            "name": "arrow_grp_flat|arrow_mesh|arrow_meshShape#0/vertices/NORMAL",
            "bufferView": 1,
            "byteOffset": 0,
            "componentType": 5126,
            "count": 15,
            "max": [
                3.999999886872274e-9,
                0.0,
                1.0
            ],
            "min": [
                -9.999999717180686e-10,
                -3.000000026176508e-9,
                1.0
            ],
            "type": "VEC3"
        },
        {
            "name": "arrow_grp_flat|arrow_mesh|arrow_meshShape#0/vertices/POSITION",
            "bufferView": 1,
            "byteOffset": 180,
            "componentType": 5126,
            "count": 15,
            "max": [
                2.677098512649536,
                6.261232376098633,
                -0.0007061440264806151
            ],
            "min": [
                -2.677098512649536,
                0.0,
                -0.0007061510113999248
            ],
            "type": "VEC3"
        },
        {
            "name": "arrow_grp_flat|arrow_mesh|arrow_meshShape#0/vertices/TANGENT",
            "bufferView": 2,
            "byteOffset": 0,
            "componentType": 5126,
            "count": 15,
            "max": [
                1.0,
                0.9787064790725708,
                9.999999717180686e-10,
                1.0
            ],
            "min": [
                -0.9014427661895752,
                -0.8661343455314636,
                -3.999999886872274e-9,
                -1.0
            ],
            "type": "VEC4"
        },
        {
            "name": "arrow_grp_flat|arrow_mesh|arrow_meshShape#0/vertices/TEXCOORD_0",
            "bufferView": 3,
            "byteOffset": 0,
            "componentType": 5126,
            "count": 15,
            "max": [
                0.625,
                1.0
            ],
            "min": [
                0.1875,
                0.75
            ],
            "type": "VEC2"
        }
    ],
    "bufferViews": [
        {
            "name": "arrow_flat/data/indices-2",
            "buffer": 0,
            "byteOffset": 720,
            "byteLength": 42,
            "target": 34963
        },
        {
            "name": "arrow_flat/data/vertices-12",
            "buffer": 0,
            "byteOffset": 240,
            "byteLength": 360,
            "byteStride": 12,
            "target": 34962
        },
        {
            "name": "arrow_flat/data/vertices-16",
            "buffer": 0,
            "byteOffset": 0,
            "byteLength": 240,
            "byteStride": 16,
            "target": 34962
        },
        {
            "name": "arrow_flat/data/vertices-8",
            "buffer": 0,
            "byteOffset": 600,
            "byteLength": 120,
            "byteStride": 8,
            "target": 34962
        }
    ],
    "buffers": [
        {
            "name": "arrow_flat/data",
            "byteLength": 762,
            "uri": "arrow_flat0.bin"
        }
    ]
}
